<svg width="145" height="49" viewBox="0 0 145 49" fill="none" xmlns="http://www.w3.org/2000/svg">
<path d="M123.313 0.680786L138.103 15.6745V3.31606H134.065V0.680786H145V3.31606H140.962V28.6239H139.555L123.268 11.4491V25.9885H127.306V28.6239H116.373V25.9885H120.411V3.31606H116.373V0.680786H123.313Z" fill="#452005"/>
<path d="M109.561 9.95045C107.746 9.95045 106.294 9.61726 105.205 8.95086C104.147 8.25417 103.315 7.46663 102.71 6.58819C102.136 5.70976 101.758 4.86164 101.576 4.04378C101.395 3.22594 101.289 2.66557 101.259 2.36267C100.684 2.30207 100.124 2.2718 99.58 2.2718H98.1283C97.5234 2.2718 96.9941 2.30207 96.5402 2.36267C96.0866 2.39295 95.6936 2.43839 95.3608 2.49897C94.9979 2.55954 94.6651 2.62014 94.3628 2.68072C94.0905 3.74088 93.8637 4.90707 93.6822 6.17927C93.5309 7.26974 93.3799 8.54192 93.2286 9.99588C93.1076 11.4498 93.0471 12.9946 93.0471 14.6303C93.0471 16.2964 93.1076 17.8563 93.2286 19.3102C93.3799 20.7339 93.5309 21.991 93.6822 23.0815C93.8637 24.3537 94.0905 25.5349 94.3628 26.6254C94.6954 26.7164 95.0584 26.7919 95.4515 26.8527C95.7843 26.9132 96.1774 26.9584 96.6312 26.9889C97.0848 27.0192 97.5837 27.0342 98.1283 27.0342C98.7331 27.0342 99.4135 26.9737 100.17 26.8527C100.926 26.7314 101.667 26.5194 102.393 26.2164V17.6291H99.7613V14.9939H110.014V28.4429L104.616 27.8522C103.557 28.3671 102.438 28.7306 101.259 28.9426C100.109 29.1849 99.0657 29.3061 98.1283 29.3061C95.7691 29.3061 93.7275 29.0486 92.0036 28.5337C90.3098 27.9884 88.9035 27.1252 87.7846 25.9439C86.6956 24.7625 85.879 23.248 85.3346 21.4003C84.8205 19.5222 84.5635 17.2656 84.5635 14.6303C84.5635 11.9951 84.8205 9.75356 85.3346 7.90583C85.879 6.0581 86.6956 4.54359 87.7846 3.36226C88.9035 2.18092 90.3098 1.33279 92.0036 0.817845C93.7275 0.272614 95.7691 0 98.1283 0C99.1565 0 100.321 0.0454362 101.621 0.136308C102.952 0.19689 104.207 0.272616 105.387 0.363488C106.778 0.484649 108.169 0.590668 109.561 0.681539V9.95045Z" fill="#452005"/>
<path d="M78.6462 0.680786V3.31606H74.6086V25.9885H78.6462V28.6239H62.9492V25.9885H66.987V3.31606H62.9492V0.680786H78.6462Z" fill="#452005"/>
<path d="M56.1348 0.680786V9.94968C54.6226 9.94968 53.3675 9.70736 52.3694 9.22271C51.4017 8.73807 50.6 8.1474 49.9649 7.45071C49.3601 6.75404 48.9065 6.02705 48.6039 5.26981C48.3016 4.51254 48.0898 3.8613 47.9688 3.31606H43.8858V13.4028H51.825V16.0381H43.8858V25.9885H48.6494C48.7702 25.4434 48.982 24.792 49.2845 24.0347C49.5868 23.2775 50.0404 22.5505 50.6455 21.8538C51.2504 21.1572 52.0518 20.5666 53.05 20.0819C54.0479 19.5669 55.3032 19.3094 56.8154 19.3094V28.6239H32.2266V25.9885H36.2641V3.31606H32.2266V0.680786H56.1348Z" fill="#452005"/>
<path d="M4.03766 25.9849V3.31245H0V0.677177H10.4344C10.9788 0.677177 11.5686 0.66203 12.2038 0.631738C12.869 0.601449 13.2774 0.586304 13.4286 0.586304C17.3604 0.586304 20.2488 1.22241 22.0937 2.49461C23.9385 3.76681 24.8612 5.69027 24.8612 8.26496C24.8612 10.0521 24.4226 11.4757 23.5454 12.5359C22.6985 13.5658 21.6249 14.3382 20.3244 14.8531L28.2636 27.6659V28.6201H19.9161L12.4306 15.8981H11.6593V25.9849H14.7896V28.6201H0V25.9849H4.03766ZM13.4286 2.90353C12.7935 2.90353 12.2038 2.94897 11.6593 3.03983V13.8535H16.3321C16.3926 13.3084 16.4531 12.7328 16.5135 12.127C16.574 11.6121 16.6195 11.0365 16.6497 10.4004C16.7101 9.73404 16.7404 9.0525 16.7404 8.35583C16.7404 7.65914 16.6951 6.99275 16.6043 6.35666C16.5438 5.72056 16.4682 5.16017 16.3775 4.67553C16.2566 4.13029 16.1506 3.60022 16.0599 3.08527C15.8481 3.05498 15.5912 3.0247 15.2887 2.9944C15.0467 2.9641 14.7594 2.94897 14.4267 2.94897C14.094 2.91868 13.7613 2.90353 13.4286 2.90353Z" fill="#452005"/>
<path d="M99.8193 39.5293H101.28V43.8286L105.223 39.5293H107.054L103.604 43.3949L107.107 48.3627H105.382L102.53 44.4969L101.28 45.8876V48.3627H99.8193V39.5293Z" fill="#452005"/>
<path d="M95.7936 45.1472L98.0522 48.3627H96.1995L94.135 45.382H92.2292V48.3627H90.7646V39.5293H93.9761C95.2819 39.5293 96.2171 39.758 96.7816 40.2156C97.3582 40.6613 97.6463 41.3898 97.6463 42.4016C97.6463 43.8586 97.0287 44.7738 95.7936 45.1472ZM94.0292 44.0452C94.8407 44.0452 95.3995 43.9188 95.7054 43.6659C96.0113 43.4131 96.1641 42.9856 96.1641 42.3833C96.1641 41.8055 96.0113 41.4139 95.7054 41.2091C95.3995 40.9923 94.8526 40.8841 94.0643 40.8841H92.2292V44.0452H94.0292Z" fill="#452005"/>
<path d="M84.1394 40.6498C83.2647 40.6498 82.5276 40.9598 81.9284 41.5803C81.3293 42.2006 81.0297 42.9522 81.0297 43.8349C81.0297 44.7178 81.3293 45.4691 81.9284 46.0896C82.5276 46.6979 83.2647 47.0021 84.1394 47.0021C85.0143 47.0021 85.7511 46.6979 86.3505 46.0896C86.9497 45.4691 87.249 44.7178 87.249 43.8349C87.249 42.9522 86.9497 42.2006 86.3505 41.5803C85.7511 40.9598 85.0143 40.6498 84.1394 40.6498ZM84.1394 48.362C82.8213 48.362 81.7187 47.9326 80.8321 47.0736C79.9451 46.2029 79.502 45.1232 79.502 43.8349C79.502 42.5465 79.9451 41.4729 80.8321 40.6139C81.7187 39.7432 82.8213 39.3077 84.1394 39.3077C85.4577 39.3077 86.5602 39.7432 87.4469 40.6139C88.3336 41.4729 88.777 42.5465 88.777 43.8349C88.777 45.1232 88.3277 46.1968 87.4287 47.0558C86.5303 47.9268 85.4336 48.362 84.1394 48.362Z" fill="#452005"/>
<path d="M75.8317 48.3627H74.3411V44.8761L71.1113 39.5293H72.7261L75.0865 43.5395L77.4644 39.5293H79.0614L75.8317 44.8761V48.3627Z" fill="#452005"/>
<path d="M58.5718 45.8876L60.5189 39.5293H61.8408L63.7879 45.8876L65.9852 39.5293H67.575L64.5205 48.3627H63.0556L61.2334 42.3111H61.1263L59.2863 48.3627H57.8214L54.7666 39.5293H56.3567L58.5718 45.8876Z" fill="#452005"/>
<path d="M53.7478 39.5293V40.9203H49.1631V43.2685H53.2734V44.5873H49.1631V46.9534H53.8885V48.3627H47.7051V39.5293H53.7478Z" fill="#452005"/>
<path d="M43.7782 39.5293H45.2705V48.3627H43.6509L38.6098 41.9136V48.3627H37.0996V39.5293H38.6098L43.7782 46.1225V39.5293Z" fill="#452005"/>
</svg>
